<svg width="40" height="40" viewBox="0 0 40 40" fill="none" xmlns="http://www.w3.org/2000/svg">
<g id="arrow_circle_right">
<mask id="mask0_103_21148" style="mask-type:alpha" maskUnits="userSpaceOnUse" x="0" y="0" width="40" height="40">
<rect id="Bounding box" width="40" height="40" fill="#D9D9D9"/>
</mask>
<g mask="url(#mask0_103_21148)">
<path id="arrow_circle_right_2" d="M22.656 20.7051L19.4979 23.8633C19.3647 23.9964 19.3034 24.1531 19.3141 24.3333C19.3248 24.5135 19.3967 24.6702 19.5299 24.8034C19.6631 24.9366 19.8269 25.0032 20.0214 25.0032C20.2158 25.0032 20.3761 24.9366 20.5021 24.8034L24.4509 20.8547C24.693 20.6125 24.8141 20.3276 24.8141 20C24.8141 19.6724 24.693 19.3875 24.4509 19.1453L20.4701 15.1645C20.3369 15.0313 20.1802 14.9648 20 14.9648C19.8198 14.9648 19.6631 15.0313 19.5299 15.1645C19.3967 15.2977 19.3301 15.4616 19.3301 15.656C19.3301 15.8504 19.3967 16.0107 19.5299 16.1367L22.656 19.2949H15C14.7952 19.2949 14.6265 19.3613 14.4939 19.4942C14.3612 19.6271 14.2949 19.796 14.2949 20.0011C14.2949 20.2062 14.3612 20.3748 14.4939 20.507C14.6265 20.6391 14.7952 20.7051 15 20.7051H22.656ZM20.0056 35C17.9356 35 15.9912 34.6064 14.1723 33.8192C12.3534 33.032 10.7639 31.959 9.40387 30.6003C8.04385 29.2415 6.96986 27.6535 6.18192 25.8363C5.39397 24.0191 5 22.0755 5 20.0056C5 17.9313 5.3936 15.9812 6.18079 14.1552C6.96801 12.3291 8.041 10.7407 9.39975 9.38996C10.7585 8.03921 12.3465 6.96986 14.1637 6.18192C15.9809 5.39397 17.9245 5 19.9944 5C22.0687 5 24.0188 5.3936 25.8448 6.18079C27.6709 6.96801 29.2593 8.03637 30.61 9.38587C31.9608 10.7354 33.0301 12.3223 33.8181 14.1466C34.606 15.9709 35 17.9202 35 19.9944C35 22.0644 34.6064 24.0088 33.8192 25.8277C33.032 27.6466 31.9636 29.2361 30.6141 30.5961C29.2646 31.9562 27.6777 33.0301 25.8534 33.8181C24.0291 34.606 22.0798 35 20.0056 35ZM20 33.5898C23.7849 33.5898 26.9961 32.2699 29.6335 29.6303C32.271 26.9907 33.5898 23.7806 33.5898 20C33.5898 16.2151 32.271 13.0039 29.6335 10.3665C26.9961 7.72899 23.7849 6.41025 20 6.41025C16.2194 6.41025 13.0092 7.72899 10.3697 10.3665C7.73006 13.0039 6.41025 16.2151 6.41025 20C6.41025 23.7806 7.73006 26.9907 10.3697 29.6303C13.0092 32.2699 16.2194 33.5898 20 33.5898Z" fill="#4587C2"/>
</g>
</g>
</svg>
