<svg width="48" height="48" viewBox="0 0 48 48" fill="none" xmlns="http://www.w3.org/2000/svg">
<g id="arrow_circle_prev">
<mask id="mask0_396_4140" style="mask-type:alpha" maskUnits="userSpaceOnUse" x="0" y="0" width="48" height="48">
<rect id="Bounding box" width="48" height="48" fill="#4587C2"/>
</mask>
<g mask="url(#mask0_396_4140)">
<path id="arrow_circle_left" d="M23.1538 20.8128L23.1538 30C23.1538 30.2457 23.2336 30.4482 23.393 30.6074C23.5525 30.7665 23.7552 30.8461 24.0013 30.8461C24.2474 30.8461 24.4498 30.7665 24.6083 30.6074C24.7669 30.4482 24.8461 30.2457 24.8461 30L24.8461 20.8128L28.6359 24.6025C28.7872 24.7624 28.9795 24.8423 29.2128 24.8423C29.4461 24.8423 29.6427 24.7624 29.8025 24.6025C29.9624 24.4427 30.0423 24.2461 30.0423 24.0128C30.0423 23.7795 29.9624 23.5872 29.8025 23.4359L25.0256 18.6589C24.735 18.3683 24.3932 18.223 24 18.223C23.6068 18.223 23.2649 18.3683 22.9743 18.6589L18.1974 23.4359C18.0376 23.5957 17.9641 23.7902 17.9769 24.0193C17.9897 24.2483 18.0761 24.4427 18.2359 24.6025C18.3957 24.7624 18.5923 24.8423 18.8256 24.8423C19.059 24.8423 19.2513 24.7624 19.4025 24.6025L23.1538 20.8128ZM6 24.0067C6 21.5227 6.47231 19.1894 7.41695 17.0068C8.36161 14.8241 9.6492 12.9167 11.2797 11.2846C12.9102 9.65262 14.8158 8.36383 16.9964 7.4183C19.1771 6.47277 21.5094 6 23.9933 6C26.4824 6 28.8226 6.47232 31.0138 7.41695C33.205 8.36162 35.1111 9.6492 36.732 11.2797C38.3529 12.9102 39.6362 14.8158 40.5817 16.9964C41.5272 19.1771 42 21.5094 42 23.9933C42 26.4824 41.5277 28.8226 40.583 31.0138C39.6384 33.205 38.3563 35.1111 36.7369 36.7321C35.1175 38.353 33.2133 39.6362 31.0241 40.5817C28.8349 41.5272 26.4958 42 24.0067 42C21.5227 42 19.1894 41.5277 17.0067 40.5831C14.824 39.6384 12.9167 38.3564 11.2846 36.737C9.65261 35.1176 8.36383 33.2133 7.4183 31.0241C6.47276 28.8349 6 26.4958 6 24.0067ZM7.6923 24C7.6923 28.5419 9.27606 32.3953 12.4436 35.5603C15.6111 38.7252 19.4632 40.3077 24 40.3077C28.5419 40.3077 32.3953 38.7252 35.5602 35.5603C38.7252 32.3953 40.3077 28.5419 40.3077 24C40.3077 19.4632 38.7252 15.6111 35.5603 12.4436C32.3953 9.27607 28.5419 7.6923 24 7.6923C19.4632 7.6923 15.6111 9.27607 12.4436 12.4436C9.27607 15.6111 7.6923 19.4632 7.6923 24Z" fill="#4587C2"/>
</g>
</g>
</svg>
