<svg width="48" height="48" viewBox="0 0 48 48" fill="none" xmlns="http://www.w3.org/2000/svg">
<g id="arrow_circle_next">
<mask id="mask0_396_4143" style="mask-type:alpha" maskUnits="userSpaceOnUse" x="0" y="0" width="48" height="48">
<rect id="Bounding box" width="48" height="48" fill="#4587C2"/>
</mask>
<g mask="url(#mask0_396_4143)">
<path id="arrow_circle_right" d="M23.1539 27.1872L19.3641 23.3975C19.2043 23.2376 19.0162 23.1641 18.8 23.1769C18.5838 23.1897 18.3957 23.2761 18.2359 23.4359C18.0761 23.5957 17.9962 23.7923 17.9962 24.0257C17.9962 24.259 18.0761 24.4513 18.2359 24.6026L22.9743 29.341C23.2649 29.6317 23.6068 29.777 24 29.777C24.3932 29.777 24.7351 29.6317 25.0257 29.341L29.8026 24.5641C29.9624 24.4043 30.0423 24.2162 30.0423 24C30.0423 23.7838 29.9624 23.5957 29.8026 23.4359C29.6427 23.2761 29.4461 23.1962 29.2128 23.1962C28.9795 23.1962 28.7872 23.2761 28.6359 23.4359L24.8462 27.1872V18C24.8462 17.7543 24.7664 17.5518 24.607 17.3927C24.4475 17.2335 24.2448 17.1539 23.9986 17.1539C23.7526 17.1539 23.5502 17.2335 23.3917 17.3927C23.2331 17.5518 23.1539 17.7543 23.1539 18V27.1872ZM6 24.0067C6 21.5227 6.47231 19.1894 7.41695 17.0068C8.36162 14.8241 9.6492 12.9167 11.2797 11.2846C12.9102 9.65262 14.8158 8.36383 16.9965 7.4183C19.1771 6.47277 21.5094 6 23.9933 6C26.4824 6 28.8226 6.47232 31.0138 7.41695C33.205 8.36162 35.1111 9.6492 36.732 11.2797C38.353 12.9102 39.6362 14.8158 40.5817 16.9965C41.5272 19.1771 42 21.5094 42 23.9933C42 26.4824 41.5277 28.8226 40.583 31.0138C39.6384 33.205 38.3563 35.1111 36.7369 36.7321C35.1175 38.353 33.2133 39.6362 31.0241 40.5817C28.8349 41.5272 26.4958 42 24.0067 42C21.5227 42 19.1894 41.5277 17.0067 40.5831C14.824 39.6384 12.9167 38.3564 11.2846 36.737C9.65261 35.1176 8.36383 33.2133 7.4183 31.0241C6.47276 28.8349 6 26.4958 6 24.0067ZM7.6923 24C7.6923 28.5419 9.27607 32.3953 12.4436 35.5603C15.6111 38.7252 19.4632 40.3077 24 40.3077C28.5419 40.3077 32.3953 38.7252 35.5603 35.5603C38.7252 32.3953 40.3077 28.5419 40.3077 24C40.3077 19.4632 38.7252 15.6111 35.5603 12.4436C32.3953 9.27607 28.5419 7.6923 24 7.6923C19.4632 7.6923 15.6111 9.27607 12.4436 12.4436C9.27607 15.6111 7.6923 19.4632 7.6923 24Z" fill="#4587C2"/>
</g>
</g>
</svg>
