<svg width="17" height="11" viewBox="0 0 17 11" fill="none" xmlns="http://www.w3.org/2000/svg">
<path id="Vector" d="M15.5381 4.63654H15.0381V2.63654C15.0381 2.37132 14.9327 2.11697 14.7452 1.92943C14.5577 1.74189 14.3033 1.63654 14.0381 1.63654H13.0381V1.13654C13.0381 0.871319 12.9327 0.616965 12.7452 0.429429C12.5577 0.241892 12.3033 0.136536 12.0381 0.136536H10.5381C10.2729 0.136536 10.0185 0.241892 9.83098 0.429429C9.64344 0.616965 9.53809 0.871319 9.53809 1.13654V4.63654H6.53809V1.13654C6.53809 0.871319 6.43273 0.616965 6.24519 0.429429C6.05766 0.241892 5.8033 0.136536 5.53809 0.136536H4.03809C3.77287 0.136536 3.51852 0.241892 3.33098 0.429429C3.14344 0.616965 3.03809 0.871319 3.03809 1.13654V1.63654H2.03809C1.77287 1.63654 1.51852 1.74189 1.33098 1.92943C1.14344 2.11697 1.03809 2.37132 1.03809 2.63654V4.63654H0.538086C0.405478 4.63654 0.278301 4.68921 0.184533 4.78298C0.0907644 4.87675 0.0380859 5.00393 0.0380859 5.13654C0.0380859 5.26914 0.0907644 5.39632 0.184533 5.49009C0.278301 5.58386 0.405478 5.63654 0.538086 5.63654H1.03809V7.63654C1.03809 7.90175 1.14344 8.15611 1.33098 8.34364C1.51852 8.53118 1.77287 8.63654 2.03809 8.63654H3.03809V9.13654C3.03809 9.40175 3.14344 9.65611 3.33098 9.84364C3.51852 10.0312 3.77287 10.1365 4.03809 10.1365H5.53809C5.8033 10.1365 6.05766 10.0312 6.24519 9.84364C6.43273 9.65611 6.53809 9.40175 6.53809 9.13654V5.63654H9.53809V9.13654C9.53809 9.40175 9.64344 9.65611 9.83098 9.84364C10.0185 10.0312 10.2729 10.1365 10.5381 10.1365H12.0381C12.3033 10.1365 12.5577 10.0312 12.7452 9.84364C12.9327 9.65611 13.0381 9.40175 13.0381 9.13654V8.63654H14.0381C14.3033 8.63654 14.5577 8.53118 14.7452 8.34364C14.9327 8.15611 15.0381 7.90175 15.0381 7.63654V5.63654H15.5381C15.6707 5.63654 15.7979 5.58386 15.8916 5.49009C15.9854 5.39632 16.0381 5.26914 16.0381 5.13654C16.0381 5.00393 15.9854 4.87675 15.8916 4.78298C15.7979 4.68921 15.6707 4.63654 15.5381 4.63654ZM2.03809 7.63654V2.63654H3.03809V7.63654H2.03809ZM5.53809 9.13654H4.03809V1.13654H5.53809V9.13654ZM12.0381 9.13654H10.5381V1.13654H12.0381V8.12529C12.0381 8.12904 12.0381 8.13279 12.0381 8.13654C12.0381 8.14029 12.0381 8.14404 12.0381 8.14779V9.13654ZM14.0381 7.63654H13.0381V2.63654H14.0381V7.63654Z" fill="#1A1A1A"/>
</svg>
