<svg width="13" height="13" viewBox="0 0 13 13" fill="none" xmlns="http://www.w3.org/2000/svg">
<path id="Vector" d="M10.744 2.68524C9.62691 1.53474 8.11789 0.890081 6.54579 0.891757H6.48406C4.90351 0.908671 3.39323 1.57359 2.28135 2.74204C1.16946 3.91049 0.545815 5.48808 0.545898 7.13205C0.545898 9.71216 2.07933 11.8759 4.54737 12.7825C4.82573 12.8846 5.12357 12.9157 5.41591 12.8734C5.70825 12.831 5.98656 12.7164 6.22751 12.5391C6.46846 12.3618 6.66501 12.127 6.8007 11.8543C6.93638 11.5817 7.00724 11.2792 7.00732 10.9722C7.00732 10.7176 7.10458 10.4734 7.27768 10.2934C7.45079 10.1133 7.68557 10.0122 7.93039 10.0122H10.5963C11.0151 10.0143 11.4219 9.86737 11.7494 9.59581C12.0768 9.32426 12.305 8.9444 12.3963 8.51931C12.4994 8.04691 12.5496 7.56366 12.5457 7.07924C12.5398 6.25928 12.3775 5.44869 12.0683 4.69443C11.759 3.94017 11.3089 3.25725 10.744 2.68524ZM11.494 8.3081C11.4481 8.51988 11.3342 8.70905 11.171 8.84433C11.0077 8.97962 10.805 9.05293 10.5963 9.05214H7.93039C7.44076 9.05214 6.9712 9.25443 6.62498 9.61452C6.27877 9.9746 6.08426 10.463 6.08426 10.9722C6.08405 11.1256 6.04852 11.2766 5.98065 11.4128C5.91278 11.5489 5.81455 11.6661 5.69417 11.7547C5.57379 11.8432 5.43477 11.9005 5.28875 11.9217C5.14272 11.9429 4.99394 11.9274 4.85486 11.8765C2.76644 11.1102 1.46896 9.29215 1.46896 7.13205C1.46889 5.74105 1.99655 4.40621 2.93732 3.41752C3.87809 2.42884 5.15595 1.86619 6.49329 1.8518H6.54522C7.88261 1.8572 9.16438 2.40909 10.1141 3.38845C11.0638 4.36781 11.6054 5.69616 11.6221 7.08704C11.6255 7.49774 11.5833 7.90748 11.4963 8.3081H11.494ZM7.23809 4.0119C7.23809 4.15431 7.19749 4.29352 7.12142 4.41193C7.04535 4.53034 6.93722 4.62263 6.81072 4.67713C6.68422 4.73162 6.54503 4.74588 6.41073 4.7181C6.27644 4.69032 6.15309 4.62174 6.05627 4.52104C5.95945 4.42034 5.89351 4.29205 5.8668 4.15237C5.84009 4.0127 5.8538 3.86793 5.9062 3.73636C5.95859 3.60479 6.04733 3.49233 6.16118 3.41322C6.27502 3.3341 6.40887 3.29187 6.54579 3.29187C6.7294 3.29187 6.90549 3.36773 7.03532 3.50276C7.16515 3.63779 7.23809 3.82094 7.23809 4.0119ZM4.69967 5.45197C4.69967 5.59438 4.65907 5.73359 4.583 5.852C4.50693 5.97041 4.39881 6.06269 4.27231 6.11719C4.14581 6.17169 4.00661 6.18595 3.87232 6.15817C3.73802 6.13038 3.61467 6.06181 3.51785 5.96111C3.42103 5.86041 3.3551 5.73211 3.32838 5.59244C3.30167 5.45277 3.31538 5.30799 3.36778 5.17642C3.42018 5.04485 3.50891 4.9324 3.62276 4.85328C3.73661 4.77416 3.87045 4.73193 4.00738 4.73193C4.19098 4.73193 4.36707 4.8078 4.4969 4.94283C4.62673 5.07786 4.69967 5.261 4.69967 5.45197ZM4.69967 8.81212C4.69967 8.95453 4.65907 9.09374 4.583 9.21215C4.50693 9.33056 4.39881 9.42285 4.27231 9.47735C4.14581 9.53185 4.00661 9.5461 3.87232 9.51832C3.73802 9.49054 3.61467 9.42196 3.51785 9.32126C3.42103 9.22057 3.3551 9.09227 3.32838 8.9526C3.30167 8.81292 3.31538 8.66815 3.36778 8.53658C3.42018 8.40501 3.50891 8.29256 3.62276 8.21344C3.73661 8.13432 3.87045 8.09209 4.00738 8.09209C4.19098 8.09209 4.36707 8.16795 4.4969 8.30298C4.62673 8.43802 4.69967 8.62116 4.69967 8.81212ZM9.77651 5.45197C9.77651 5.59438 9.7359 5.73359 9.65983 5.852C9.58376 5.97041 9.47564 6.06269 9.34914 6.11719C9.22264 6.17169 9.08344 6.18595 8.94915 6.15817C8.81486 6.13038 8.6915 6.06181 8.59468 5.96111C8.49787 5.86041 8.43193 5.73211 8.40522 5.59244C8.37851 5.45277 8.39222 5.30799 8.44461 5.17642C8.49701 5.04485 8.58574 4.9324 8.69959 4.85328C8.81344 4.77416 8.94729 4.73193 9.08421 4.73193C9.26782 4.73193 9.44391 4.8078 9.57374 4.94283C9.70357 5.07786 9.77651 5.261 9.77651 5.45197Z" fill="#1A1A1A"/>
</svg>
