<svg width="13" height="13" viewBox="0 0 13 13" fill="none" xmlns="http://www.w3.org/2000/svg">
<path id="Vector" d="M12.5123 1.39613C12.5052 1.27382 12.4533 1.15839 12.3667 1.07175C12.2801 0.985118 12.1646 0.933311 12.0423 0.926168C7.28438 0.646816 3.47329 2.0792 1.84835 4.76648C1.2851 5.68573 1.00755 6.75153 1.05088 7.82873C1.08651 8.82365 1.37649 9.82857 1.91272 10.8191L0.693397 12.0378C0.599581 12.1316 0.546875 12.2588 0.546875 12.3915C0.546875 12.5242 0.599581 12.6514 0.693397 12.7452C0.787214 12.839 0.914456 12.8917 1.04713 12.8917C1.17981 12.8917 1.30705 12.839 1.40087 12.7452L2.61957 11.5259C3.60953 12.0615 4.61512 12.3515 5.60945 12.3871C5.67903 12.3896 5.7484 12.3909 5.81757 12.3909C6.82487 12.3936 7.81308 12.1162 8.67183 11.5897C11.3592 9.96481 12.7923 6.15449 12.5123 1.39613ZM8.15622 10.7347C6.73441 11.5959 5.05135 11.6097 3.36204 10.7829L8.90119 5.24457C8.94765 5.19812 8.9845 5.14297 9.00964 5.08228C9.03478 5.02159 9.04772 4.95654 9.04772 4.89085C9.04772 4.82515 9.03478 4.7601 9.00964 4.69941C8.9845 4.63872 8.94765 4.58358 8.90119 4.53713C8.85474 4.49067 8.79959 4.45383 8.7389 4.42869C8.6782 4.40355 8.61315 4.39061 8.54746 4.39061C8.48176 4.39061 8.41671 4.40355 8.35602 4.42869C8.29532 4.45383 8.24018 4.49067 8.19372 4.53713L2.65519 10.0785C1.83085 8.39119 1.84273 6.70382 2.70332 5.28456C4.08389 3.00537 7.36563 1.75735 11.5348 1.90609C11.6842 6.072 10.4355 9.35423 8.15622 10.7347Z" fill="#1A1A1A"/>
</svg>
