<svg width="24" height="24" viewBox="0 0 24 24" fill="none" xmlns="http://www.w3.org/2000/svg">
<g id="expand_more">
<mask id="mask0_103_20530" style="mask-type:alpha" maskUnits="userSpaceOnUse" x="0" y="0" width="24" height="24">
<rect id="Bounding box" width="24" height="24" fill="#D9D9D9"/>
</mask>
<g mask="url(#mask0_103_20530)">
<path id="expand_more_2" d="M12 15.0815C11.8507 15.0815 11.7078 15.0557 11.5712 15.0041C11.4346 14.9524 11.3103 14.8707 11.1984 14.7587L6.60433 10.1647C6.39309 9.95345 6.28748 9.68823 6.28748 9.36903C6.28748 9.04983 6.39309 8.78461 6.60433 8.57338C6.81556 8.36215 7.08078 8.25653 7.39998 8.25653C7.71918 8.25653 7.98439 8.36215 8.19563 8.57338L12 12.3777L15.8043 8.57338C16.0156 8.36215 16.2808 8.25653 16.6 8.25653C16.9192 8.25653 17.1844 8.36215 17.3956 8.57338C17.6069 8.78461 17.7125 9.04983 17.7125 9.36903C17.7125 9.68823 17.6069 9.95345 17.3956 10.1647L12.8016 14.7587C12.6897 14.8707 12.5654 14.9524 12.4288 15.0041C12.2922 15.0557 12.1493 15.0815 12 15.0815Z" fill="white"/>
</g>
</g>
</svg>
