<svg width="25" height="24" viewBox="0 0 25 24" fill="none" xmlns="http://www.w3.org/2000/svg">
<g id="expand_more">
<mask id="mask0_561_5457" style="mask-type:alpha" maskUnits="userSpaceOnUse" x="0" y="0" width="25" height="24">
<rect id="Bounding box" x="0.5" width="24" height="24" fill="#D9D9D9"/>
</mask>
<g mask="url(#mask0_561_5457)">
<path id="expand_more_2" d="M12.5016 15.0815C12.3523 15.0815 12.2093 15.0557 12.0728 15.004C11.9362 14.9524 11.8119 14.8706 11.6999 14.7586L7.10591 10.1646C6.89468 9.95339 6.78906 9.68817 6.78906 9.36897C6.78906 9.04977 6.89468 8.78455 7.10591 8.57332C7.31715 8.36209 7.58236 8.25647 7.90156 8.25647C8.22076 8.25647 8.48598 8.36209 8.69721 8.57332L12.5016 12.3777L16.3059 8.57332C16.5171 8.36209 16.7824 8.25647 17.1016 8.25647C17.4208 8.25647 17.686 8.36209 17.8972 8.57332C18.1084 8.78455 18.2141 9.04977 18.2141 9.36897C18.2141 9.68817 18.1084 9.95339 17.8972 10.1646L13.3032 14.7586C13.1912 14.8706 13.067 14.9524 12.9304 15.004C12.7938 15.0557 12.6508 15.0815 12.5016 15.0815Z" fill="white"/>
</g>
</g>
</svg>
