<svg width="13" height="13" viewBox="0 0 13 13" fill="none" xmlns="http://www.w3.org/2000/svg">
<path id="Vector" d="M8.60888 2.92216C8.60888 3.0493 8.57117 3.17359 8.50052 3.27931C8.42987 3.38503 8.32945 3.46743 8.21196 3.51609C8.09448 3.56474 7.9652 3.57747 7.84047 3.55267C7.71575 3.52786 7.60118 3.46664 7.51126 3.37673C7.42134 3.28682 7.3601 3.17228 7.33529 3.04757C7.31049 2.92287 7.32322 2.79361 7.37188 2.67614C7.42055 2.55868 7.50296 2.45827 7.6087 2.38764C7.71443 2.317 7.83874 2.27929 7.96591 2.27929C8.13644 2.27929 8.29998 2.34702 8.42056 2.46758C8.54114 2.58814 8.60888 2.75166 8.60888 2.92216ZM10.2988 7.78488C8.84892 9.23133 6.57924 9.83937 3.53049 9.60365C3.61586 10.2408 3.73552 10.9117 3.88948 11.6164C3.91369 11.7274 3.8928 11.8435 3.83141 11.9391C3.77002 12.0348 3.67315 12.1021 3.5621 12.1264C3.53185 12.1332 3.50094 12.1366 3.46994 12.1365C3.37231 12.1364 3.27767 12.1029 3.20168 12.0416C3.12568 11.9803 3.07288 11.8949 3.05201 11.7996C2.87662 10.9985 2.74464 10.2371 2.65605 9.51526C1.93449 9.42633 1.17347 9.29436 0.372969 9.11936C0.262409 9.09458 0.166159 9.02704 0.105262 8.93151C0.044365 8.83598 0.0237754 8.72022 0.0479945 8.60956C0.0722136 8.49889 0.139271 8.40231 0.234506 8.34094C0.329742 8.27956 0.445407 8.25838 0.556215 8.28203C1.26027 8.43561 1.93074 8.55525 2.56764 8.64096C2.33242 5.59326 2.94271 3.32448 4.38939 1.87536C6.73355 -0.475377 10.4537 0.184629 11.1754 0.34106C11.3366 0.376176 11.4843 0.456846 11.6009 0.573472C11.7176 0.690098 11.7983 0.837771 11.8334 0.998923C11.9898 1.72054 12.6505 5.44004 10.2988 7.78488ZM9.49511 7.3622C8.31607 7.18412 7.22512 6.63301 6.38224 5.78969C5.53936 4.94638 4.98891 3.85523 4.81161 2.67626C3.65587 3.98074 3.19721 6.01165 3.43404 8.73739C6.16077 8.97579 8.19202 8.51721 9.49672 7.3622H9.49511ZM10.9954 1.18053C10.1279 1.00122 9.23867 0.95103 8.35651 1.0316C7.27204 1.13875 6.35259 1.45107 5.6105 1.96697C5.63997 3.17681 6.13366 4.32899 6.98935 5.18493C7.84503 6.04087 8.99717 6.53502 10.2072 6.56505C10.7226 5.82308 11.0372 4.90432 11.1427 3.81949C11.223 2.93737 11.1733 2.04824 10.9954 1.18053Z" fill="#1A1A1A"/>
</svg>
