<svg width="15" height="11" viewBox="0 0 15 11" fill="none" xmlns="http://www.w3.org/2000/svg">
<path id="Vector" d="M9.00682 3.18001C9.30968 3.18001 9.60574 3.09077 9.85755 2.92355C10.1094 2.75634 10.3056 2.51868 10.4215 2.24062C10.5374 1.96256 10.5678 1.65659 10.5087 1.3614C10.4496 1.06621 10.3038 0.795062 10.0896 0.582243C9.87545 0.369424 9.6026 0.224493 9.30556 0.165776C9.00852 0.107059 8.70063 0.137195 8.42083 0.252372C8.14102 0.367549 7.90187 0.562594 7.73361 0.812843C7.56535 1.06309 7.47554 1.3573 7.47554 1.65828C7.47554 2.06187 7.63687 2.44893 7.92404 2.73431C8.21122 3.01969 8.6007 3.18001 9.00682 3.18001ZM9.00682 1.0061C9.13662 1.0061 9.2635 1.04435 9.37142 1.11601C9.47934 1.18767 9.56346 1.28953 9.61313 1.4087C9.6628 1.52787 9.6758 1.659 9.65047 1.78551C9.62515 1.91202 9.56265 2.02822 9.47087 2.11943C9.37909 2.21064 9.26215 2.27275 9.13485 2.29792C9.00755 2.32308 8.8756 2.31017 8.75568 2.26081C8.63577 2.21144 8.53327 2.12785 8.46116 2.0206C8.38905 1.91335 8.35056 1.78726 8.35056 1.65828C8.35056 1.48531 8.4197 1.31942 8.54277 1.19712C8.66585 1.07481 8.83277 1.0061 9.00682 1.0061ZM13.9769 9.48001L10.9931 4.47567C10.9162 4.3453 10.8061 4.23732 10.6739 4.16254C10.5418 4.08776 10.3921 4.0488 10.24 4.04958C10.088 4.04879 9.93848 4.08774 9.8064 4.16253C9.67432 4.23732 9.56435 4.34531 9.48753 4.47567L8.05688 6.87567L5.60465 2.7398C5.52738 2.60929 5.41715 2.50109 5.28488 2.42592C5.15261 2.35075 5.00287 2.31121 4.8505 2.31121C4.69812 2.31121 4.54839 2.35075 4.41612 2.42592C4.28384 2.50109 4.17361 2.60929 4.09634 2.7398L0.0986144 9.4811C0.0594832 9.54713 0.0386053 9.62225 0.0380955 9.69888C0.0375857 9.7755 0.057462 9.8509 0.0957112 9.91743C0.13396 9.98396 0.189224 10.0393 0.255904 10.0777C0.322584 10.1162 0.398312 10.1365 0.475418 10.1365H13.6007C13.6779 10.1365 13.7537 10.1162 13.8205 10.0776C13.8872 10.0391 13.9425 9.98361 13.9808 9.91693C14.019 9.85024 14.0387 9.77469 14.0381 9.69796C14.0374 9.62122 14.0163 9.54602 13.9769 9.48001ZM4.8505 3.18001L6.1395 5.35393H3.56149L4.8505 3.18001ZM1.24106 9.26697L3.04578 6.22349H6.65522L7.68008 7.95175L8.45994 9.26697H1.24106ZM9.4755 9.26697L8.56439 7.73001L10.24 4.91914L12.835 9.26697H9.4755Z" fill="#1A1A1A"/>
</svg>
