<svg width="25" height="25" viewBox="0 0 25 25" fill="none" xmlns="http://www.w3.org/2000/svg">
<g id="add_circle">
<mask id="mask0_396_2996" style="mask-type:alpha" maskUnits="userSpaceOnUse" x="0" y="0" width="25" height="25">
<rect id="Bounding box" x="0.5" y="0.5" width="24" height="24" fill="#D9D9D9"/>
</mask>
<g mask="url(#mask0_396_2996)">
<path id="add_circle_2" d="M11.75 13.25V16.5C11.75 16.7125 11.8219 16.8906 11.9657 17.0344C12.1095 17.1781 12.2877 17.25 12.5003 17.25C12.7129 17.25 12.891 17.1781 13.0346 17.0344C13.1782 16.8906 13.25 16.7125 13.25 16.5V13.25H16.5C16.7125 13.25 16.8906 13.1781 17.0344 13.0343C17.1781 12.8905 17.25 12.7123 17.25 12.4997C17.25 12.2871 17.1781 12.109 17.0344 11.9654C16.8906 11.8218 16.7125 11.75 16.5 11.75H13.25V8.50001C13.25 8.28751 13.1781 8.10938 13.0343 7.96563C12.8904 7.8219 12.7122 7.75003 12.4997 7.75003C12.2871 7.75003 12.109 7.8219 11.9654 7.96563C11.8218 8.10938 11.75 8.28751 11.75 8.50001V11.75H8.49998C8.28748 11.75 8.10936 11.8219 7.96563 11.9657C7.82188 12.1095 7.75 12.2877 7.75 12.5003C7.75 12.7129 7.82188 12.891 7.96563 13.0346C8.10936 13.1782 8.28748 13.25 8.49998 13.25H11.75ZM12.5016 22C11.1877 22 9.95268 21.7506 8.79655 21.252C7.6404 20.7533 6.63472 20.0766 5.7795 19.2217C4.92427 18.3669 4.24721 17.3616 3.74833 16.206C3.24944 15.0504 3 13.8156 3 12.5017C3 11.1877 3.24933 9.95271 3.748 8.79658C4.24667 7.64043 4.92342 6.63475 5.77825 5.77953C6.6331 4.9243 7.63834 4.24724 8.79398 3.74836C9.94959 3.24947 11.1844 3.00003 12.4983 3.00003C13.8122 3.00003 15.0473 3.24936 16.2034 3.74803C17.3596 4.2467 18.3652 4.92345 19.2205 5.77828C20.0757 6.63313 20.7527 7.63837 21.2516 8.79401C21.7505 9.94962 22 11.1844 22 12.4983C22 13.8123 21.7506 15.0473 21.252 16.2034C20.7533 17.3596 20.0765 18.3653 19.2217 19.2205C18.3669 20.0757 17.3616 20.7528 16.206 21.2517C15.0504 21.7505 13.8156 22 12.5016 22ZM12.5 20.5C14.7333 20.5 16.625 19.725 18.175 18.175C19.725 16.625 20.5 14.7333 20.5 12.5C20.5 10.2667 19.725 8.37501 18.175 6.82501C16.625 5.27501 14.7333 4.50001 12.5 4.50001C10.2666 4.50001 8.37498 5.27501 6.82498 6.82501C5.27498 8.37501 4.49998 10.2667 4.49998 12.5C4.49998 14.7333 5.27498 16.625 6.82498 18.175C8.37498 19.725 10.2666 20.5 12.5 20.5Z" fill="white"/>
</g>
</g>
</svg>
