<svg width="13" height="13" viewBox="0 0 13 13" fill="none" xmlns="http://www.w3.org/2000/svg">
<path id="Vector" d="M11.6228 3.77196H7.65994L9.64167 1.7116C9.72827 1.62154 9.77693 1.49938 9.77693 1.37201C9.77693 1.24464 9.72827 1.12248 9.64167 1.03242C9.55506 0.942352 9.4376 0.891754 9.31513 0.891754C9.19265 0.891754 9.07519 0.942352 8.98859 1.03242L6.5459 3.57336L4.10321 1.03242C4.06032 0.987822 4.00942 0.952447 3.95339 0.928311C3.89736 0.904176 3.83731 0.891754 3.77667 0.891754C3.71602 0.891754 3.65597 0.904176 3.59995 0.928311C3.54392 0.952447 3.49301 0.987822 3.45013 1.03242C3.36353 1.12248 3.31487 1.24464 3.31487 1.37201C3.31487 1.49938 3.36353 1.62154 3.45013 1.7116L5.43186 3.77196H1.46898C1.22416 3.77196 0.989372 3.8731 0.816261 4.05313C0.643151 4.23316 0.545898 4.47733 0.545898 4.73194V11.9318C0.545898 12.1864 0.643151 12.4306 0.816261 12.6106C0.989372 12.7906 1.22416 12.8918 1.46898 12.8918H11.6228C11.8676 12.8918 12.1024 12.7906 12.2755 12.6106C12.4486 12.4306 12.5459 12.1864 12.5459 11.9318V4.73194C12.5459 4.47733 12.4486 4.23316 12.2755 4.05313C12.1024 3.8731 11.8676 3.77196 11.6228 3.77196ZM11.6228 11.9318H1.46898V4.73194H11.6228V11.9318Z" fill="#1A1A1A"/>
</svg>
