<svg width="24" height="24" viewBox="0 0 24 24" fill="none" xmlns="http://www.w3.org/2000/svg">
<g id="expand_more">
<mask id="mask0_407_941" style="mask-type:alpha" maskUnits="userSpaceOnUse" x="0" y="0" width="24" height="24">
<rect id="Bounding box" width="24" height="24" fill="#D9D9D9"/>
</mask>
<g mask="url(#mask0_407_941)">
<path id="expand_more_2" d="M11.9996 15.0815C11.8503 15.0815 11.7074 15.0557 11.5708 15.0041C11.4342 14.9524 11.3099 14.8707 11.198 14.7587L6.60396 10.1647C6.39273 9.95345 6.28711 9.68823 6.28711 9.36903C6.28711 9.04983 6.39273 8.78461 6.60396 8.57338C6.81519 8.36215 7.08041 8.25653 7.39961 8.25653C7.71881 8.25653 7.98403 8.36215 8.19526 8.57338L11.9996 12.3777L15.804 8.57338C16.0152 8.36215 16.2804 8.25653 16.5996 8.25653C16.9188 8.25653 17.184 8.36215 17.3953 8.57338C17.6065 8.78461 17.7121 9.04983 17.7121 9.36903C17.7121 9.68823 17.6065 9.95345 17.3953 10.1647L12.8012 14.7587C12.6893 14.8707 12.565 14.9524 12.4284 15.0041C12.2918 15.0557 12.1489 15.0815 11.9996 15.0815Z" fill="white"/>
</g>
</g>
</svg>
