<svg width="52" height="51" viewBox="0 0 52 51" fill="none" xmlns="http://www.w3.org/2000/svg">
<g id="Singapore (SG)">
<g clip-path="url(#clip0_121_531)">
<g id="Clip path group">
<mask id="mask0_121_531" style="mask-type:luminance" maskUnits="userSpaceOnUse" x="0" y="0" width="52" height="51">
<g id="a">
<path id="Vector" d="M0.987305 0.0254517L50.9873 0.000248986L51.0125 50.0002L1.01251 50.0254L0.987305 0.0254517Z" fill="white"/>
</g>
</mask>
<g mask="url(#mask0_121_531)">
<g id="Group">
<path id="Vector_2" fill-rule="evenodd" clip-rule="evenodd" d="M-0.285156 -0.408264L65.5737 -0.441461L65.6032 58.0998L-0.255648 58.133L-0.285156 -0.408264Z" fill="white"/>
<path id="Vector_3" fill-rule="evenodd" clip-rule="evenodd" d="M-0.285156 -0.408264L65.5737 -0.441461L65.5885 28.8292L-0.270402 28.8624L-0.285156 -0.408264Z" fill="#DF0000"/>
<path id="Vector_4" fill-rule="evenodd" clip-rule="evenodd" d="M14.9013 4.48703C13.1689 4.98437 11.6178 6.26131 10.5083 8.10346C9.39887 9.94561 8.79864 12.2408 8.80841 14.6037C8.81819 16.9666 9.43737 19.2533 10.562 21.0799C11.6866 22.9065 13.2482 24.1617 14.9846 24.6349C13.9902 25.0192 12.9487 25.1379 11.9197 24.9842C10.8907 24.8305 9.89451 24.4075 8.98828 23.7395C8.08204 23.0714 7.28358 22.1714 6.63869 21.0911C5.9938 20.0108 5.51516 18.7715 5.23023 17.4442C4.6643 14.776 4.91364 11.918 5.92372 9.49494C6.93381 7.07187 8.62246 5.28089 10.6205 4.51358C12.0837 3.95183 13.4375 3.93895 14.9104 4.48703L14.9013 4.48703Z" fill="white"/>
<path id="Vector_5" fill-rule="evenodd" clip-rule="evenodd" d="M13.7166 13.0004L14.1657 14.8296L12.976 13.7082L11.8058 14.8552L12.2347 13.0012L11.0633 11.8675L12.5177 11.8424L12.9741 10.0127L13.4324 11.8419L14.8777 11.8412L13.7166 13.0004ZM15.3205 19.3416L15.7788 21.1829L14.5891 20.0615L13.4097 21.1963L13.8478 19.3545L12.6764 18.2087L14.1308 18.1957L14.5781 16.3539L15.0364 18.1831L16.4999 18.1823L15.3205 19.3416ZM20.6715 19.2901L21.1207 21.1437L19.931 20.01L18.7607 21.1449L19.1897 19.303L18.0183 18.1694L19.4727 18.1443L19.9291 16.3146L20.3874 18.1438L21.8326 18.1431L20.6715 19.2901ZM22.2599 12.9961L22.7091 14.8375L21.5194 13.716L20.3491 14.8509L20.7873 13.009L19.6067 11.8632L21.0702 11.8503L21.5084 10.0084L21.9666 11.8376L23.4302 11.8369L22.2599 12.9961ZM18.0227 8.81498L18.481 10.6686L17.2913 9.53492L16.1119 10.6819L16.5501 8.82792L15.3787 7.68207L16.8239 7.66915L17.2803 5.82731L17.7386 7.65649L19.2021 7.65575L18.0227 8.81498Z" fill="white"/>
</g>
</g>
</g>
</g>
</g>
<defs>
<clipPath id="clip0_121_531">
<rect x="0.987305" y="0.0254517" width="50" height="50" rx="25" transform="rotate(-0.0288801 0.987305 0.0254517)" fill="white"/>
</clipPath>
</defs>
</svg>
